<svg id="Layer_1" data-name="Layer 1" xmlns="http://www.w3.org/2000/svg" xmlns:xlink="http://www.w3.org/1999/xlink" viewBox="0 0 750 757.31"><defs><style>.cls-1{fill:#ecf0f1;}.cls-2{fill:#2a232b;}.cls-3{fill:#764630;}.cls-4{fill:#855844;}.cls-5{fill:#673620;}.cls-6{fill:none;stroke:#481c08;stroke-width:1.5px;}.cls-7{fill:url(#linear-gradient);}.cls-8{fill:#1d282e;}.cls-9{fill:#141111;}.cls-10{fill:#2c2526;}.cls-11{fill:#545b8e;}.cls-12{fill:#2d373d;}.cls-13{fill:#101a1f;}.cls-14{fill:#070c0f;}.cls-15{fill:#6e3e27;}.cls-16{fill:url(#linear-gradient-2);}.cls-17{fill:#f771a9;stroke:#e85391;stroke-width:0.75px;}.cls-18{fill:#c92066;}.cls-19{fill:#ff8ebd;}.cls-20{fill:#ffa8cc;}.cls-21{fill:url(#radial-gradient);}.cls-22{fill:#681711;}.cls-23{fill:url(#radial-gradient-2);}.cls-24{fill:url(#radial-gradient-3);}.cls-25{opacity:0.9;}.cls-25,.cls-26,.cls-27,.cls-28,.cls-35,.cls-36,.cls-37,.cls-42,.cls-46,.cls-47,.cls-49,.cls-50{isolation:isolate;}.cls-26,.cls-27,.cls-35,.cls-36{opacity:0.5;}.cls-26{fill:url(#linear-gradient-3);}.cls-27{fill:url(#linear-gradient-4);}.cls-28,.cls-37{opacity:0.75;}.cls-28{fill:url(#linear-gradient-5);}.cls-29{fill:url(#radial-gradient-4);}.cls-30{fill:url(#radial-gradient-5);}.cls-31{fill:#481c08;}.cls-32{fill:url(#radial-gradient-6);}.cls-33{fill:url(#radial-gradient-7);}.cls-34{fill:url(#radial-gradient-8);}.cls-35{fill:url(#linear-gradient-6);}.cls-36{fill:url(#linear-gradient-7);}.cls-37{fill:url(#linear-gradient-8);}.cls-38{fill:url(#radial-gradient-9);}.cls-39{fill:url(#radial-gradient-10);}.cls-40{fill:url(#radial-gradient-11);}.cls-41{fill:url(#radial-gradient-12);}.cls-42{fill:#956d5a;}.cls-42,.cls-46{opacity:0.2;}.cls-43{fill:#1b141c;}.cls-44{fill:#0c080c;}.cls-45{fill:#3a353a;}.cls-46,.cls-47{fill:#fff;}.cls-47{opacity:0.4;}.cls-48{fill:#26120b;}.cls-50{font-size:25.4px;font-family:Roboto-Regular, Roboto;}.cls-51{letter-spacing:-0.02em;}.cls-52{letter-spacing:-0.01em;}.cls-53{letter-spacing:-0.06em;}.cls-54{letter-spacing:0em;}</style><linearGradient id="linear-gradient" x1="-318.58" y1="604.26" x2="-318.58" y2="639.18" gradientTransform="matrix(3, 0, 0, -3, 1318, 2284)" gradientUnits="userSpaceOnUse"><stop offset="0" stop-color="#673620" stop-opacity="0.8"/><stop offset="0.7" stop-color="#481c08"/></linearGradient><linearGradient id="linear-gradient-2" x1="-318.45" y1="634.53" x2="-318.45" y2="637.53" gradientTransform="matrix(3, 0, 0, -3, 1318, 2284)" gradientUnits="userSpaceOnUse"><stop offset="0.1" stop-color="#6e3e27"/><stop offset="1" stop-color="#673620"/></linearGradient><radialGradient id="radial-gradient" cx="-745.81" cy="673.81" r="13.22" gradientTransform="matrix(-3.29, 0.29, -0.29, -3.28, -1977.87, 2645.32)" gradientUnits="userSpaceOnUse"><stop offset="0" stop-color="#fff"/><stop offset="0.54" stop-color="#fdfefe"/><stop offset="0.74" stop-color="#f6f8f9"/><stop offset="0.88" stop-color="#eaeff2"/><stop offset="0.99" stop-color="#d9e3e8"/><stop offset="1" stop-color="#d8e2e7"/></radialGradient><radialGradient id="radial-gradient-2" cx="970.12" cy="86.07" r="84.65" gradientTransform="matrix(0.29, -0.07, -0.07, -0.29, 14.25, 318.5)" gradientUnits="userSpaceOnUse"><stop offset="0" stop-color="#fff" stop-opacity="0.8"/><stop offset="1" stop-color="#fff" stop-opacity="0"/></radialGradient><radialGradient id="radial-gradient-3" cx="1210.03" cy="694.65" r="84.71" gradientTransform="matrix(0.3, 0, 0, -0.3, -74.72, 424.84)" xlink:href="#radial-gradient-2"/><linearGradient id="linear-gradient-3" x1="-296.17" y1="682.48" x2="-294.85" y2="684.06" gradientTransform="matrix(3, 0, 0, -3, 1162, 2287)" gradientUnits="userSpaceOnUse"><stop offset="0" stop-color="#fff"/><stop offset="1" stop-color="#fff" stop-opacity="0"/></linearGradient><linearGradient id="linear-gradient-4" x1="-291.74" y1="690.81" x2="-293.74" y2="688.81" gradientTransform="matrix(3, 0, 0, -3, 1168, 2287)" xlink:href="#linear-gradient-3"/><linearGradient id="linear-gradient-5" x1="-288.18" y1="694.25" x2="-292.18" y2="690.25" gradientTransform="matrix(3, 0, 0, -3, 1168, 2287)" xlink:href="#linear-gradient-3"/><radialGradient id="radial-gradient-4" cx="-289.39" cy="795.78" fx="-275.9443914582661" r="17.05" gradientTransform="matrix(2.98, 0.36, -0.32, 2.64, 1413.17, -1782.57)" gradientUnits="userSpaceOnUse"><stop offset="0" stop-color="#673620"/><stop offset="0.7" stop-color="#673620" stop-opacity="0.3"/><stop offset="1" stop-color="#764630" stop-opacity="0"/></radialGradient><radialGradient id="radial-gradient-5" cx="-263.54" cy="621.58" r="26.19" gradientTransform="matrix(2.15, -0.3, -0.3, -2.18, 1036.42, 1534.24)" gradientUnits="userSpaceOnUse"><stop offset="0.9" stop-opacity="0"/><stop offset="1" stop-opacity="0.3"/></radialGradient><radialGradient id="radial-gradient-6" cx="-310.79" cy="712.02" r="13.22" gradientTransform="matrix(3.29, 0.29, 0.29, -3.28, 1259.87, 2645.32)" xlink:href="#radial-gradient"/><radialGradient id="radial-gradient-7" cx="949.95" cy="85.88" r="84.65" gradientTransform="matrix(0.29, -0.07, -0.07, -0.29, 170.04, 316.95)" xlink:href="#radial-gradient-2"/><radialGradient id="radial-gradient-8" cx="1190.59" cy="689.29" r="84.71" gradientTransform="matrix(0.3, 0, 0, -0.3, 81.08, 423.3)" xlink:href="#radial-gradient-2"/><linearGradient id="linear-gradient-6" x1="-298.17" y1="682.48" x2="-296.85" y2="684.06" gradientTransform="matrix(3, 0, 0, -3, 1318, 2287)" xlink:href="#linear-gradient-3"/><linearGradient id="linear-gradient-7" x1="-291.74" y1="690.81" x2="-293.74" y2="688.81" gradientTransform="matrix(3, 0, 0, -3, 1318, 2287)" xlink:href="#linear-gradient-3"/><linearGradient id="linear-gradient-8" x1="-288.18" y1="694.25" x2="-292.18" y2="690.25" gradientTransform="matrix(3, 0, 0, -3, 1318, 2287)" xlink:href="#linear-gradient-3"/><radialGradient id="radial-gradient-9" cx="-766.89" cy="861.72" fx="-753.4491334949232" r="17.05" gradientTransform="matrix(-2.98, 0.36, 0.32, 2.64, -2131.17, -1782.57)" xlink:href="#radial-gradient-4"/><radialGradient id="radial-gradient-10" cx="-922.62" cy="713.26" r="26.19" gradientTransform="matrix(-2.15, -0.3, 0.3, -2.18, -1754.42, 1534.24)" xlink:href="#radial-gradient-5"/><radialGradient id="radial-gradient-11" cx="-318.46" cy="662.46" r="40.03" gradientTransform="matrix(3, 0, 0, -3, 1318, 2284)" gradientUnits="userSpaceOnUse"><stop offset="0" stop-color="#855844" stop-opacity="0.5"/><stop offset="0.9" stop-color="#764630" stop-opacity="0"/></radialGradient><radialGradient id="radial-gradient-12" cx="-318.46" cy="718.53" r="36" xlink:href="#radial-gradient-11"/></defs><title>Real Estate Crowdfunding P1</title><g id="svga-group-wrapper"><g id="svga-group-backs-single"><path id="SvgjsPath2745" class="cls-1" d="M737.63,632.41h-750v-750h750Z" transform="translate(12.37 117.59)"/></g><g id="svga-group-subwrapper"><g id="svga-group-hair-back"><path id="SvgjsPath3730" class="cls-2" d="M364.13,258.91h-3v-3h3Z" transform="translate(12.37 117.59)"/></g><g id="svga-group-humanbody-single"><path id="SvgjsPath2761" class="cls-3" d="M635.2,557c-18-30.47-40.42-35.92-58.88-41.81-19-6-58-9.53-79.35-13.8-20.58-4.12-69.46-17.36-70-40.46-.58-24.2,12.87-120.27,12.87-120.27H284.65s13.46,96.07,12.88,120.27c-.55,23.1-49.44,36.34-70,40.46-21.31,4.27-60.37,7.76-79.34,13.8-18.47,5.89-40.87,11.33-58.9,41.81-10.93,18.48-18,48.4-18,81.4h582C653.24,605.41,646.16,575.49,635.2,557Z" transform="translate(12.37 117.59)"/><path id="SvgjsPath2762" class="cls-4" d="M427,460.94c7.48,32.79,54.49,41.1,78.88,46,65.72,13.13,101.31,15.4,126.89,58.61,8.71,14.75,16.37,47.6,17.88,72.46,5.51.88,1.6-52.29-15.41-81C606,507.6,547.94,511.61,497,501.41c-20.58-4.12-69.46-17.37-70-40.47Zm-128.66,0c-.55,23.1-49.43,36.35-70,40.47-51,10.2-109,6.19-138.23,55.6-17,28.69-20.92,81.86-15.41,81,1.51-24.86,9.18-57.71,17.88-72.46,25.58-43.21,61.17-45.48,126.9-58.61,24.38-4.88,71.39-13.19,78.87-46Z" transform="translate(12.37 117.59)"/><path id="SvgjsPath2763" class="cls-5" d="M216.25,526s85.92.9,100.42,5.66c6.94,2.27,25.11,16.9,25.11,16.9s-19.66-9.51-26-11.28C301.16,533.14,216.25,526,216.25,526ZM362,557.41c6.15-.12,23.66-11.4,23.66-11.4s-16.73,6.18-22,6.48c-4.47.26-19.1-3.71-19.1-3.71S357,557.51,362,557.41Zm51.63-21.73C433.9,530.23,503,526,503,526s-71.37-1.54-91.53,5.18c-6.75,2.26-22.68,15.48-22.68,15.48S407,537.48,413.65,535.68Z" transform="translate(12.37 117.59)"/><path id="SvgjsPath2764" class="cls-6" d="M635.2,557C606,507.6,547.84,511.59,497,501.41c-20.58-4.12-69.46-17.37-70-40.47-.58-24.2,12.87-120.27,12.87-120.27H284.65s13.46,96.07,12.88,120.27c-.55,23.1-49.44,36.35-70,40.47-21.31,4.26-60.37,7.75-79.34,13.8-18.47,5.89-40.87,11.33-58.9,41.8-10.93,18.48-18,48.4-18,81.4h582C653.24,605.41,646.16,575.49,635.2,557Z" transform="translate(12.37 117.59)"/></g><g id="svga-group-chinshadow-single"><path id="SvgjsPath2910" class="cls-7" d="M362.69,471.22c16.82,0,40.59-10.88,62.9-25.43,1.46-20.52,5.27-52,8.28-75.29-41.92-5.48-101.49-5.36-143.22.3,3,23.1,6.74,54.19,8.21,74.63C321.46,460.19,345.66,471.25,362.69,471.22Z" transform="translate(12.37 117.59)"/></g><g id="svga-group-clothes-single"><path id="SvgjsPath3705" class="cls-8" d="M633.19,556.35c-29-53.76-80.4-44.24-133.84-58.66-4,4.91-41.06,52.4-49.45,77.8a121.7,121.7,0,0,1-14.41-13.43c-19.89-22.38-49.36-94.81-59.25-38.25,2.15-25.39,13.84-31,30.07-9.7,17.45,22.9,18.1,34.72,43,59.62,4.4-17.49,12.82-30.11,23.9-45.6,10.72-15,19.3-26.83,31.7-37.48-6.79-3.67-14-6.65-20.41-10.78-40.54-26.28-16.3-52.94-53.05-59.3-.29,3.18-.65,6.74-.95,9.42,7.85,3.87,9.38,19-2.72,30-19.23,20.23-44.6,21.23-52.65,52.29h0c-2.56,9.21-4.62,23.32-5.59,31.59L355.89,545c-5.54-48.67-12.78-53.43-36.47-68.47-15.69-10-37.47-25-29.09-42a9.21,9.21,0,0,1,3.56-4.08c-.42-3.89-.66-6.15-1-9.76-36.65,6.94-12.11,34.82-53,59.62-6.18,3.74-12.22,6.29-19.62,10.25C235,503.34,269.26,546.11,276,573.74c25.13-25.43,25.32-36.54,42.88-59.54,15.12-19.79,27.47-17.76,30.06,9-1.42-8-4.81-20.36-12.13-20.36-6,0-12.33,8.53-15.44,12.65-17.43,23-20.23,39.46-46.06,60a115,115,0,0,0-6.38-15.13c-10.24-19.81-39.88-58.78-43-62.66-12.25,3.31-29,5.95-40.22,7.74C112.36,517.15,83.94,531.89,73.13,638.1c268.92-2.61,378.5-1.47,578.8-1.47C649.41,613,644.49,577.34,633.19,556.35Z" transform="translate(12.37 117.59)"/><path id="SvgjsPath3706" class="cls-9" d="M349.78,630.44c-11,0-18.86-.18-23.49-.53,1.4-7.44,5.57-21.38,8-28.32-7.67-9.68-9.82-19.7-11.72-28.55-1.14-5.26-2.12-9.82-4.09-13.4l1.47-.83-.19-.27c-5.05-7.24-11-15.12-17.26-18.83l1-1.7c5.08-8.46,13.55-22.58,20.83-29.95,12.56,9.5,27,27.42,32.59,36.77l.11.18.2,0a82.89,82.89,0,0,1,11.44-.93c8.78-13.42,21-27.15,32.3-36,5.9,5.16,15.31,20.87,19.85,28.46.88,1.46,1.55,2.59,1.95,3.22-7.07,4.75-13.74,13.78-16.31,17.47l-.16.23.22.18a50.89,50.89,0,0,1,4,3.45c-2.08,15.3-8.62,31.08-17.18,40.93,2.06,6.54,2.86,14,4,24.38l.37,3.42-4.69.09c-8.83.18-27.21.56-43.19.56Z" transform="translate(12.37 117.59)"/><path id="SvgjsPath3707" class="cls-10" d="M404.36,564.23c-.6,13-5.1,23.62-12.79,36.21,7.94-9.91,17-24.83,18.94-39.38-8.41-8.41-38.32-22.54-70-10.57C366.42,545.39,397.07,549.65,404.36,564.23Z" transform="translate(12.37 117.59)"/><path id="SvgjsPath3708" class="cls-11" d="M494.49,500.79c-7.39,8-13.83,16.9-21.29,27.34-9.57,13.4-17.15,24.65-21.87,38.76,5.43-29.1,23.75-55.44,46.3-75.48-23.72-4.31-35-25.67-40.65-47.37,3.53,10.5,8,23.21,27.52,35.83C491,484,498.12,487,504.91,490.65,504.45,491,494.49,500.79,494.49,500.79Zm126.14,50.62c17,21.31,25,48.67,30.33,76.7C648.2,605,643.2,575,633.19,556.35c-29-53.76-80.41-44.24-133.84-58.66-.47.57-1.41,1.75-2.69,3.39C540.59,506.9,591.74,513.85,620.63,551.41ZM220.36,490.65c6.78-3.67,13.94-6.65,20.4-10.78,19.47-12.62,24-25.33,27.52-35.83-5.61,21.7-16.93,43.06-40.65,47.37,22.55,20,40.86,46.38,46.31,75.48-4.73-14.11-12.31-25.36-21.88-38.76-7.46-10.44-13.9-19.31-21.29-27.34C230.77,500.79,220.81,491,220.36,490.65Zm8.24,10.43c-1.28-1.64-2.21-2.81-2.69-3.39-53.43,14.42-104.85,4.91-133.84,58.67-10,18.59-15,48.68-17.77,71.75,5.33-28,13.29-55.39,30.33-76.7C133.52,513.85,184.67,506.9,228.6,501.08Z" transform="translate(12.37 117.59)"/><path id="SvgjsPath3709" class="cls-12" d="M494.49,500.79c-7.39,8-13.83,16.9-21.29,27.34-9.57,13.4-17.15,24.65-21.87,38.76,5.43-29.1,23.75-55.44,46.3-75.48-23.72-4.31-35-25.67-40.65-47.37,3.53,10.5,8,23.21,27.52,35.83C491,484,498.12,487,504.91,490.65,504.45,491,494.49,500.79,494.49,500.79Zm126.14,50.62c17,21.31,25,48.67,30.33,76.7C648.2,605,643.2,575,633.19,556.35c-29-53.76-80.41-44.24-133.84-58.66-.47.57-1.41,1.75-2.69,3.39C540.59,506.9,591.74,513.85,620.63,551.41ZM220.36,490.65c6.78-3.67,13.94-6.65,20.4-10.78,19.47-12.62,24-25.33,27.52-35.83-5.61,21.7-16.93,43.06-40.65,47.37,22.55,20,40.86,46.38,46.31,75.48-4.73-14.11-12.31-25.36-21.88-38.76-7.46-10.44-13.9-19.31-21.29-27.34C230.77,500.79,220.81,491,220.36,490.65Zm8.24,10.43c-1.28-1.64-2.21-2.81-2.69-3.39-53.43,14.42-104.85,4.91-133.84,58.67-10,18.59-15,48.68-17.77,71.75,5.33-28,13.29-55.39,30.33-76.7C133.52,513.85,184.67,506.9,228.6,501.08Z" transform="translate(12.37 117.59)"/><path id="SvgjsPath3710" class="cls-13" d="M417.54,476.41c-13.46,7.48-24.85,14.82-32.41,25.14,2.94.85,10.67,2.89,14.3,7.13-12,9.42-19.29,18-29.74,34.83,1.19-9.4,1.67-16.69,3.61-23.58.56-2.74,1.17-5.35,1.81-7.65h0c8.06-31.06,33.42-32.06,52.65-52.29,12.1-11,10.58-26.13,2.72-30,.3-2.68.67-6.24.95-9.42,2,.35,3.81.78,5.48,1.24C461.71,442.71,434.45,469.17,417.54,476.41Zm-113.11,0c13.46,7.48,29.91,16.34,37.45,25.76-2.94.85-12.42,2.27-16.05,6.51,13.65,12.73,21.91,21.56,30.79,35.94A174.38,174.38,0,0,0,352,519.93c-.56-2.74-1.17-5.35-1.81-7.65h0c-8.06-31.06-33.42-32.06-52.65-52.29-12.1-11-10.58-26.13-2.72-30-.3-2.68-.66-6.24-.95-9.42-2,.35-3.81.78-5.48,1.24C267.56,446.13,289.24,467.58,304.43,476.41Z" transform="translate(12.37 117.59)"/><path id="SvgjsPath3711" class="cls-14" d="M434.21,436.77c1.7,7-1,12.63-5.25,17.46,0-5.16.48-10.35,1-15.45.24-2.52.52-5.07.75-7.59A9,9,0,0,1,434.21,436.77Zm-139.65,3.09c.33,4.41.72,8.82.81,13.23-3.66-4.59-5.85-9.81-4.32-16.26a9.35,9.35,0,0,1,2.67-4.95C294,434.55,294.29,437.19,294.56,439.86Z" transform="translate(12.37 117.59)"/><path id="SvgjsPath3712" d="M640.31,559.47c-26.52-60.73-89.12-53.4-139.38-63.15a77,77,0,0,1,5.22-5.7c-7.91-5.58-33.38-16.78-42.72-37.14-6.69-14.5-5.05-31.11-32.55-33.78-1.51,8.45-3.68,27-3.27,36-28.81,29.72-57.19,16.44-60.68,88.08l2.34-.06s.66-.43.68-.64c8.54-70.06,30.13-53.51,58-82.88,12.51-11.49,10.35-26.7,2.82-30.39.33-3,.63-5.91.9-8.88,23.67,4.17,21.61,17.51,29,33.81,9.84,21.67,34,30.79,43.65,36-13,11.19-22.41,24.66-32.81,39.21-16.36,22.68-20.14,34.26-22.42,43.23-24.82-25-24.84-35.95-42.6-59.22-18.93-24.84-31.1-11.73-30.86,16.11.54-7,4.7-32.49,16.53-25.8,13.67,7.63,27.08,40,43.05,58A123.5,123.5,0,0,0,450.05,576c6.21-20.8,28.85-50,42.81-69.39,2.13-2.94,4.32-5.82,6.6-8.58,19.47,5.07,39.78,7.38,59.49,11,71.35,13.08,84.49,52.47,92.64,127.32-113.81.58-237.41-1.81-578.13,1.46C78.4,588.92,86.75,549,117,527.36c13-9.3,28-14.16,43.47-17.25,21.57-4.29,44-6.51,65.37-12.06,2.49,3,4.86,6.15,7.17,9.39,26.41,36.73,33.3,44.8,42.21,68.55,30.05-22.54,42.07-64.85,58.62-72.15C345.32,498.77,349,523.1,349.58,530c.23-29.52-13.56-47-41.43-.66-13.73,22.86-17.38,29.06-32,43.77-5.86-23.84-37.08-66.77-55.32-82.5,11.32-6.08,31.78-13.31,42.72-33.9,7.23-14.12,4-30.88,29.07-35.67.27,3.09.6,6.15.93,9.24-6.86,4.32-8.05,18.85,2.91,29,9.87,10.83,23.25,17,35,25.65,13.86,10.26,19.35,20.75,23.76,57.45a8.26,8.26,0,0,0,1.13,2.33l1.92-.25c-1.13-25.44-4.8-47-19.7-59.47-12.87-11-30.91-18-41.82-30.3.33-9.22-2.11-27.89-3.3-34.92-24.92,2.43-25.13,17.57-30.42,30.83-8,20.06-28.8,30.77-43.95,39.94,1,1,3.39,3.56,5.22,5.73-21,4.1-42.69,5.28-63.72,9-31.38,5.49-61,21.36-74.49,51.57-10.25,22.93-13.22,55.81-14,81a3.63,3.63,0,0,0,0,.57c.42,0,.87,0,1.29,0,361,3.68,576.69-1.53,579.69-1.53C653.09,633.9,651.76,585.7,640.31,559.47ZM429,454.23c0-7.77,1.12-16.78,1.7-23C435.08,434.21,437.69,444.26,429,454.23Zm-133.59-1.14c-7.34-9.2-5-18.12-1.65-21.21C294.41,438.1,295.24,446.8,295.37,453.09Z" transform="translate(12.37 117.59)"/></g><g id="svga-group-head"><g id="svga-group-faceshape-wrap"><g id="svga-group-faceshape-single"><path id="SvgjsPath2907" class="cls-3" d="M539,187.7h0c0,.16-32.15,133.12-56.76,170.85-19.35,29.68-84.5,76.62-119.52,76.67s-100.31-46.67-119.75-76.3c-24.73-37.65-57.26-170.51-57.29-170.67h0a181.42,181.42,0,0,1-6-46.14C179.48,41.68,261.1-39.83,362-40s182.74,81.1,182.89,181.53A181.64,181.64,0,0,1,539,187.7Z" transform="translate(12.37 117.59)"/><path id="SvgjsPath2908" class="cls-15" d="M439.93-22.72C497.24,8,536.15,68.34,536.05,137.71a181.81,181.81,0,0,1-6,46.14h0c0,.16-32.57,133-57.29,170.68-17.84,27.18-73.67,75.36-110.5,75.36s-92.66-48.18-110.5-75.36C227,316.87,194.48,184,194.44,183.85h0a181.81,181.81,0,0,1-6-46.14C188.32,68.34,227.24,8,284.55-22.72c-62.09,29.11-105,92-104.92,164.83a181.87,181.87,0,0,0,6,46.14h0c0,.16,32.57,133,57.3,170.67,13.24,20.19,47.76,48.29,79.5,64.15q-2.38-1-4.8-2.15c16.22,8.62,32,14.29,44.14,14.3h.91c12.15,0,27.92-5.68,44.14-14.3-1.61.76-3.21,1.47-4.8,2.15,31.73-15.86,66.25-44,79.5-64.15,24.73-37.65,57.26-170.51,57.3-170.67h0a181.42,181.42,0,0,0,6-46.14C545,69.25,502,6.39,439.93-22.72Z" transform="translate(12.37 117.59)"/><path id="SvgjsPath2909" class="cls-6" d="M539,187.7h0c0,.16-32.15,133.12-56.76,170.85-19.35,29.68-84.5,76.62-119.52,76.67s-100.31-46.67-119.75-76.3c-24.73-37.65-57.26-170.51-57.29-170.67h0a181.42,181.42,0,0,1-6-46.14C179.48,41.68,261.1-39.83,362-40s182.74,81.1,182.89,181.53A181.64,181.64,0,0,1,539,187.7Z" transform="translate(12.37 117.59)"/></g></g><g id="svga-group-mouth-single"><path id="SvgjsPath2882" class="cls-16" d="M362.64,381.72c-12.48,0-15.4-9.7-15.4-9.7H378S373.61,381.72,362.64,381.72Z" transform="translate(12.37 117.59)"/><path id="SvgjsPath2886" class="cls-17" d="M325.24,356.29c8.27-2.85,18.72-10.87,25.29-11.17,3.4-.15,7.06,2.61,10.73,3.5,2.55.62,9.79-3.47,12.39-3.5,6.81-.06,19,8.32,26.3,11.17h0s-15.16,18.07-37.35,18.07a46.58,46.58,0,0,1-37.36-18.07Z" transform="translate(12.37 117.59)"/><path id="SvgjsPath2887" class="cls-18" d="M401.05,356.12a6.88,6.88,0,0,0-2.25-.06c-.92,0-1.64-.35-3.65-.39-2.22,0-11.83-.8-15-1-6.38-.43-11.47,2-17.54,2s-11.6-2.65-18-2.22c-3.17.22-12.34,1.19-14.57,1.24-2,.06-2.77.4-3.69.36a5.75,5.75,0,0,0-2.31.15c-.45.26-.27,1.68.08,2.05.85.89,4.19-.7,5.87-.66,2.33.05,11.53-.15,14.75-.36,6.25-.43,11.81,2.46,17.86,2.46S373.78,357,380,357.42c3.21.22,12.84.19,15.18.15,1.69,0,5.29,1.35,6.15.66C401.76,357.9,401.55,356.32,401.05,356.12Z" transform="translate(12.37 117.59)"/><path id="SvgjsPath2888" class="cls-19" d="M362.6,369.73a43.41,43.41,0,0,1-27.73-9.92c3.93-.21,8-.83,11.89-.65,4.84.21,9.43,2.11,14.27,2.43,5.22.35,10.07-1.46,15.19-2.08,4.26-.51,8.79.18,13.07.33C381.64,365.72,372.36,369.73,362.6,369.73ZM377,352.46c3.94-.24,8,.26,11.92.42-4.29-2.13-8.86-4.66-13.64-5.42-4.13-.65-8.13,2.65-12.14,3.31-4.52.75-8.07-3.45-12.48-3.45-4.78.21-9.59,3.3-13.73,5.42,3.85-.23,7.8-.79,11.65-.42,4.72.44,9.29,2.14,14.05,2.14S372.11,352.75,377,352.46Z" transform="translate(12.37 117.59)"/><path id="SvgjsPath2889" class="cls-20" d="M362.45,366.87a28.14,28.14,0,0,1-17.12-6c1.14-.11,2.29-.2,3.4-.2l1,0a24.75,24.75,0,0,1,5.54,1.18,30.54,30.54,0,0,0,5.77,1.26c.4,0,.79,0,1.19,0a28.26,28.26,0,0,0,7-1.19,36.22,36.22,0,0,1,4.18-.94,15.91,15.91,0,0,1,2.51-.18c.8,0,1.63.05,2.45.11C374.22,364.13,368.72,366.87,362.45,366.87Z" transform="translate(12.37 117.59)"/></g><g id="svga-group-eyes-left"><g id="svga-group-eyesback-left"><path id="SvgjsPath3316" class="cls-21" d="M293.41,200c13.82,1.85,24.14,11.47,33.13,27,0,0,0,0,0,0s.07.19.09.28c.87,3.56-2.26,6.59-6.21,9-14.24,2.77-27.9,6.49-42.46,4.88-29.16-3.22-30.13-18.44-31.65-22.38a57,57,0,0,1-1.19-11.65c5.53.1,11.94-3.16,17.34-4.66C268.82,200.74,283,198.63,293.41,200Z" transform="translate(12.37 117.59)"/></g><g id="svga-group-eyesiriswrapper-left"><g id="svga-group-eyesiriscontrol-left"><g id="svga-group-eyesiris-left"><path id="SvgjsPath3617" class="cls-22" d="M313.13,221.41a25.5,25.5,0,0,1-51,0h0a25.5,25.5,0,1,1,51,0Z" transform="translate(12.37 117.59)"/><path id="SvgjsPath3618" class="cls-23" d="M284.77,196.2l-.3,0,.36,1.73C284.81,197.37,284.8,196.78,284.77,196.2Zm.06,1.75c.3,8.38.78,15.85,2.19,18.55C287.77,213.54,286.51,206.17,284.83,198Zm2.2,18.56c-.18.71-.46,1.19-.88,1.35a1.79,1.79,0,0,1-1.56-.43,1.37,1.37,0,0,1-1.74,1.94,1.8,1.8,0,0,1,.62,1.5c-.12.44-.57.77-1.25,1,.68.26,1.13.59,1.24,1a1.79,1.79,0,0,1-.62,1.49,1.73,1.73,0,0,1,1.58.35,1.79,1.79,0,0,1,.15,1.61,1.77,1.77,0,0,1,1.55-.43c.43.16.7.65.87,1.36.35-.64.73-1.06,1.19-1.1s.92.25,1.4.8a1.8,1.8,0,0,1,.54-1.53,1.76,1.76,0,0,1,1.61,0,1.8,1.8,0,0,1-.23-1.6,1.78,1.78,0,0,1,1.46-.7c-.6-.42-1-.85-.95-1.31s.35-.89,1-1.3a1.79,1.79,0,0,1-1.45-.71,1.83,1.83,0,0,1,.24-1.61,1.76,1.76,0,0,1-1.61.05,1.8,1.8,0,0,1-.54-1.53c-.47.55-.94.85-1.4.79S287.36,217.15,287,216.51Zm2.58.32c2-2.28,4.34-9.39,6.67-17.44C292.65,206.94,289.62,213.77,289.61,216.83Zm6.67-17.45c.25-.51.52-1,.76-1.57l-.27-.11C296.61,198.27,296.44,198.83,296.28,199.38Zm-4.52,18.93c2.86-1.07,8.21-6.3,14-12.35C299.05,211,293.18,215.61,291.76,218.31Zm14-12.34,1.3-1c-.06-.07-.13-.14-.18-.21ZM293,220.63c3,.37,10.2-1.78,18.16-4.43C302.83,217.51,295.48,218.89,293,220.63Zm18.16-4.43c.47-.06.95-.14,1.43-.22,0-.07,0-.16-.06-.24Zm-18.16,7c2.5,1.75,9.85,3.17,18.11,4.52C303.14,225.06,296,222.87,293,223.23Zm18.11,4.52,1.21.41.06-.21Zm-19.34-2.21c1.41,2.7,7.26,7.38,13.95,12.42C299.91,231.89,294.59,226.62,291.73,225.54ZM305.68,238l.76.8.13-.14Zm-16.09-11c0,3.06,3,9.91,6.57,17.49C293.87,236.43,291.61,229.3,289.59,227Zm6.57,17.49c.09.31.19.64.27,1a.7.7,0,0,1,.17-.06C296.45,245.1,296.31,244.79,296.16,244.5ZM287,227.32c-1.42,2.7-1.95,10.16-2.3,18.53C286.41,237.65,287.72,230.29,287,227.32Zm-2.3,18.53c-.07.32-.13.64-.19,1l.16,0C284.67,246.52,284.68,246.18,284.69,245.85Zm-.12-19.47c-2.53,1.73-6.46,8.1-10.66,15.35C279.24,235.26,283.83,229.35,284.57,226.38Zm-10.66,15.35c-.22.27-.45.55-.69.82l.16.1Zm8.94-17.3c-3.05.36-9.48,4.16-16.57,8.63C274,229.82,280.81,226.72,282.85,224.43Zm-16.57,8.64-1.12.46.1.17Zm15.94-11.17c-2.85-1.1-10.32-.72-18.68-.05C271.9,222.56,279.36,223,282.22,221.9Zm-18.67-.05-1.37-.12a1.85,1.85,0,0,0,0,.24Zm19.3-2.48c-2-2.29-8.79-5.43-16.5-8.72C273.41,215.16,279.82,219,282.85,219.37Zm-16.5-8.72L265,209.8a1.71,1.71,0,0,1-.13.23Zm18.24,6.77c-.72-3-5.28-8.9-10.57-15.39C278.18,209.3,282.07,215.68,284.59,217.42ZM274,202c-.29-.49-.57-1-.85-1.48l-.23.16C273.3,201.15,273.67,201.59,274,202Z" transform="translate(12.37 117.59)"/><path id="SvgjsPath3622" class="cls-24" d="M291.4,196.28l-.3,0c0,.59-.07,1.18-.11,1.76C291.12,197.43,291.26,196.85,291.4,196.28ZM291,198c-1.88,8.17-3.34,15.51-2.68,18.49C289.8,213.81,290.48,206.37,291,198Zm-2.67,18.49c-.36.64-.75,1-1.21,1.08s-.91-.27-1.39-.83a1.8,1.8,0,0,1-.56,1.52,1.77,1.77,0,0,1-1.62-.09,1.81,1.81,0,0,1,.21,1.61,1.79,1.79,0,0,1-1.47.67c.58.43.94.87.93,1.32s-.38.88-1,1.29a2,2,0,0,0,2.78,2.32,1.81,1.81,0,0,1,.49,1.55c.5-.54,1-.84,1.43-.76s.82.48,1.15,1.13c.19-.7.48-1.18.92-1.34a1,1,0,1,0,1.73-1.13,1.79,1.79,0,0,1,1.6-.31c-.48-.56-.72-1.07-.59-1.51s.58-.77,1.27-1c-.68-.27-1.12-.62-1.22-1.06a1.81,1.81,0,0,1,.65-1.49,1.37,1.37,0,0,1-1.69-2,1.74,1.74,0,0,1-1.56.4C288.74,217.68,288.47,217.19,288.32,216.48Zm2.41,1c2.56-1.67,6.62-8,11-15.12C296.23,208.69,291.52,214.51,290.73,217.46Zm11-15.12c.37-.44.76-.88,1.14-1.32l-.24-.18Zm-9.27,17.11c3-.3,9.56-4,16.73-8.3C301.36,214.24,294.49,217.21,292.42,219.45Zm16.73-8.3,1.5-.58-.12-.25ZM293,222c2.83,1.14,10.31.92,18.68.42C303.32,221.54,295.87,221,293,222Zm18.68.42,1.44.16v-.25Zm-19.36,2.09c2,2.34,8.7,5.62,16.33,9.05C301.67,228.91,295.33,224.94,292.3,224.51Zm16.33,9.05,1.06.71.11-.18Zm-18.11-7.14c.67,3,5.1,9,10.26,15.62C296.77,234.67,293,228.21,290.52,226.42ZM300.78,242l.53,1,.16-.1Zm-12.71-14.74c-.8,3,.32,10.34,1.82,18.59C289.76,237.5,289.43,230,288.07,227.29Zm1.82,18.59c0,.33,0,.67,0,1l.18,0C290,246.54,290,246.21,289.89,245.88Zm-4.4-19c-2.08,2.24-4.53,9.3-7,17.3C282.25,236.74,285.43,230,285.49,226.92Zm-7,17.3c-.15.29-.29.59-.44.89l.15.06C278.27,244.86,278.37,244.53,278.46,244.22Zm4.92-18.83c-2.89,1-8.33,6.14-14.27,12.06C275.94,232.59,281.9,228.06,283.38,225.39Zm-14.27,12.06-.87.62.13.13Zm13.11-14.4c-3-.44-10.23,1.56-18.23,4C272.3,226,279.67,224.73,282.22,223.05Zm-18.23,4-1.2.17a1.8,1.8,0,0,0,0,.19Zm18.29-6.66c-2.47-1.79-9.79-3.36-18-4.88C272.13,218.41,279.24,220.74,282.28,220.44Zm-18-4.88-1.29-.47a2,2,0,0,0-.07.23Zm19.29,2.6c-1.35-2.73-7.09-7.51-13.68-12.69C275.51,211.65,280.71,217,283.54,218.16Zm-13.68-12.68-1.07-1.18-.18.2Zm15.86,11.25c.07-3-2.79-10-6.22-17.6C281.63,207.23,283.74,214.4,285.72,216.73Zm-6.22-17.6c-.15-.55-.29-1.1-.43-1.65a2.15,2.15,0,0,0-.27.1Z" transform="translate(12.37 117.59)"/><path id="SvgjsPath3626" class="cls-22" d="M297.63,221.41a10,10,0,1,1-10-10A10,10,0,0,1,297.63,221.41Z" transform="translate(12.37 117.59)"/><path id="SvgjsPath3627" class="cls-25" d="M297.63,221.41a10,10,0,1,1-10-10A10,10,0,0,1,297.63,221.41Z" transform="translate(12.37 117.59)"/><path id="SvgjsPath3628" class="cls-26" d="M273.68,233.09a4.17,4.17,0,1,1-1.14,5.79,4.18,4.18,0,0,1,1.14-5.79Z" transform="translate(12.37 117.59)"/><path id="SvgjsPath3632" class="cls-27" d="M295.54,220c-1.07,1.59-4.12,1.41-6.83-.41s-4-4.57-3-6.16h0c1.06-1.59,4.12-1.41,6.82.41s4,4.57,3,6.16Z" transform="translate(12.37 117.59)"/><path id="SvgjsPath3636" class="cls-28" d="M307.68,215.78c-2.42,3.71-8.66,3.93-13.93.49s-7.58-9.22-5.16-12.93,8.65-3.93,13.92-.5,7.58,9.23,5.17,12.94Z" transform="translate(12.37 117.59)"/></g></g></g><g id="svga-group-eyesfront-left"><path id="SvgjsPath3341" class="cls-3" d="M229.13,221.41c0,41.43,24.85,75,55.5,75s55.5-33.57,55.5-75-24.85-75-55.5-75S229.13,180,229.13,221.41Zm17.22-2.6a58.54,58.54,0,0,1-1.19-11.65c5.53.1,12-3.17,17.35-4.66,6.31-1.76,20.45-3.87,30.9-2.47,13.82,1.85,24.14,11.47,33.13,27,0,0,0,0,0,0s.07.19.09.28c.87,3.56-2.26,6.59-6.21,9-14.24,2.77-27.9,6.49-42.46,4.88C248.85,238,247.88,222.75,246.35,218.81Z" transform="translate(12.37 117.59)"/><path id="SvgjsPath3342" class="cls-29" d="M287.65,260.27c27.89,3.84,53.19-13,56.49-37.58S327.51,175,299.61,171.15s-53.19,13-56.49,37.59S259.74,256.41,287.65,260.27Zm-42.49-53.11c5.53.1,12-3.17,17.35-4.66,6.31-1.76,20.45-3.87,30.9-2.47,13.82,1.85,24.14,11.47,33.13,27,0,0,0,0,0,0s.07.19.09.28c.87,3.56-2.26,6.59-6.21,9-14.24,2.77-27.9,6.49-42.46,4.88-29.16-3.22-30.13-18.44-31.65-22.38A57.67,57.67,0,0,1,245.16,207.16Z" transform="translate(12.37 117.59)"/><path id="SvgjsPath3347" class="cls-30" d="M246.35,218.81a58.54,58.54,0,0,1-1.19-11.65c5.53.1,12-3.17,17.35-4.66,6.31-1.76,20.45-3.87,30.9-2.47,13.82,1.85,24.14,11.47,33.13,27,0,0,0,0,0,0s.07.19.09.28c.87,3.56-2.26,6.59-6.21,9-14.24,2.77-27.9,6.49-42.46,4.88C248.85,238,247.88,222.75,246.35,218.81Z" transform="translate(12.37 117.59)"/><path id="SvgjsPath3351" class="cls-31" d="M291.91,185.27c9.94,1.51,19.72,6.52,28.84,12.89a78.27,78.27,0,0,0,7.71,4.87,25,25,0,0,1-7-3.32,52.76,52.76,0,0,1,6.19,8.08c-7.89-11-22.45-18.85-34.72-21.24-11.78-2.3-33,.42-48.51,9.31C258.55,185.59,279.58,183.39,291.91,185.27Z" transform="translate(12.37 117.59)"/><path id="SvgjsPath3352" d="M326.79,227a.26.26,0,0,1-.25-.13c-9-15.13-19.31-24.5-33.13-26.3-10.44-1.37-24.58.69-30.9,2.4-5.61,1.52-12.32,4.92-18,4.55-5.26-.34-11.25-4.53-14.41-7.53,3.39,2.52,12.56,3.08,15.3,2.43a37.22,37.22,0,0,1-6.47-4c2.22,1.27,10.85,2.59,13.63,1.89a36.85,36.85,0,0,1-5.68-4.2c.42.37,10.14,2.22,15.11.57,29.81-9.93,54.1-1.36,65.58,29.85a.34.34,0,0,1,0,.31.35.35,0,0,1-.27.17Zm-81.15-9c-1.93,7.45,3.28,23.64,31.2,25.52,19.84,1.32,47.09-8.21,43.71-7.58-14.27,2.7-28,6.33-42.55,4.77C244.94,237.09,248.13,218.49,245.64,218Z" transform="translate(12.37 117.59)"/></g></g><g id="svga-group-eyes-right"><g id="svga-group-eyesback-right"><path id="SvgjsPath3324" class="cls-32" d="M431.86,200c-13.83,1.85-24.15,11.47-33.14,27,0,0,0,0-.05,0s-.07.19-.09.28c-.87,3.56,2.26,6.59,6.21,9,14.24,2.77,27.9,6.49,42.46,4.88,29.16-3.22,30.13-18.44,31.65-22.38a57.69,57.69,0,0,0,1.2-11.65c-5.54.1-12-3.16-17.35-4.66C456.44,200.74,442.3,198.63,431.86,200Z" transform="translate(12.37 117.59)"/></g><g id="svga-group-eyesiriswrapper-right"><g id="svga-group-eyesiriscontrol-right"><g id="svga-group-eyesiris-right"><path id="SvgjsPath3640" class="cls-22" d="M463.13,221.41a25.5,25.5,0,0,1-51,0h0a25.5,25.5,0,1,1,51,0Z" transform="translate(12.37 117.59)"/><path id="SvgjsPath3641" class="cls-33" d="M434.77,196.2l-.3,0,.36,1.73C434.81,197.37,434.8,196.78,434.77,196.2Zm.06,1.75c.3,8.38.78,15.85,2.19,18.55C437.77,213.54,436.51,206.17,434.83,198Zm2.2,18.56c-.18.71-.46,1.19-.88,1.35a1.79,1.79,0,0,1-1.56-.43,1.37,1.37,0,0,1-1.74,1.94,1.8,1.8,0,0,1,.62,1.5c-.12.44-.57.77-1.25,1,.68.26,1.13.59,1.24,1a1.79,1.79,0,0,1-.62,1.49,1.73,1.73,0,0,1,1.58.35,1.79,1.79,0,0,1,.15,1.61,1.77,1.77,0,0,1,1.55-.43c.43.16.7.65.87,1.36.35-.64.73-1.06,1.19-1.1s.92.25,1.4.8a1.8,1.8,0,0,1,.54-1.53,1.76,1.76,0,0,1,1.61,0,1.8,1.8,0,0,1-.23-1.6,1.78,1.78,0,0,1,1.46-.7c-.6-.42-1-.85-.95-1.31s.35-.89,1-1.3a1.79,1.79,0,0,1-1.45-.71,1.83,1.83,0,0,1,.24-1.61,1.76,1.76,0,0,1-1.61.05,1.8,1.8,0,0,1-.54-1.53c-.47.55-.94.85-1.4.79S437.36,217.15,437,216.51Zm2.58.32c2-2.28,4.34-9.39,6.67-17.44C442.65,206.94,439.62,213.77,439.61,216.83Zm6.67-17.45c.25-.51.52-1,.76-1.57l-.27-.11C446.61,198.27,446.44,198.83,446.28,199.38Zm-4.52,18.93c2.86-1.07,8.21-6.3,14-12.35C449.05,211,443.18,215.61,441.76,218.31Zm14-12.34,1.3-1c-.06-.07-.13-.14-.18-.21ZM443,220.63c3,.37,10.2-1.78,18.16-4.43C452.83,217.51,445.48,218.89,443,220.63Zm18.16-4.43c.47-.06.95-.14,1.43-.22,0-.07,0-.16-.06-.24Zm-18.16,7c2.5,1.75,9.85,3.17,18.11,4.52C453.14,225.06,446,222.87,443,223.23Zm18.11,4.52,1.21.41.06-.21Zm-19.34-2.21c1.41,2.7,7.26,7.38,13.95,12.42C449.91,231.89,444.59,226.62,441.73,225.54ZM455.68,238l.76.8.13-.14Zm-16.09-11c0,3.06,3,9.91,6.57,17.49C443.87,236.43,441.61,229.3,439.59,227Zm6.57,17.49c.09.31.19.64.27,1a.7.7,0,0,1,.17-.06C446.45,245.1,446.31,244.79,446.16,244.5ZM437,227.32c-1.42,2.7-1.95,10.16-2.3,18.53C436.41,237.65,437.72,230.29,437,227.32Zm-2.3,18.53c-.07.32-.13.64-.19,1l.16,0C434.67,246.52,434.68,246.18,434.69,245.85Zm-.12-19.47c-2.53,1.73-6.46,8.1-10.66,15.35C429.24,235.26,433.83,229.35,434.57,226.38Zm-10.66,15.35c-.22.27-.45.55-.69.82l.16.1Zm8.94-17.3c-3.05.36-9.48,4.16-16.57,8.63C424,229.82,430.81,226.72,432.85,224.43Zm-16.57,8.64-1.12.46.1.17Zm15.94-11.17c-2.85-1.1-10.32-.72-18.68-.05C421.9,222.56,429.36,223,432.22,221.9Zm-18.67-.05-1.37-.12a1.85,1.85,0,0,0,0,.24Zm19.3-2.48c-2-2.29-8.79-5.43-16.5-8.72C423.41,215.16,429.82,219,432.85,219.37Zm-16.5-8.72L415,209.8a1.71,1.71,0,0,1-.13.23Zm18.24,6.77c-.72-3-5.28-8.9-10.57-15.39C428.18,209.3,432.07,215.68,434.59,217.42ZM424,202c-.29-.49-.57-1-.85-1.48l-.23.16C423.3,201.15,423.67,201.59,424,202Z" transform="translate(12.37 117.59)"/><path id="SvgjsPath3645" class="cls-34" d="M441.4,196.28l-.3,0c0,.59-.07,1.18-.11,1.76C441.12,197.43,441.26,196.85,441.4,196.28ZM441,198c-1.88,8.17-3.34,15.51-2.68,18.49C439.8,213.81,440.48,206.37,441,198Zm-2.67,18.49c-.36.64-.75,1-1.21,1.08s-.91-.27-1.39-.83a1.8,1.8,0,0,1-.56,1.52,1.77,1.77,0,0,1-1.62-.09,1.81,1.81,0,0,1,.21,1.61,1.79,1.79,0,0,1-1.47.67c.58.43.94.87.93,1.32s-.38.88-1,1.29a2,2,0,0,0,2.78,2.32,1.81,1.81,0,0,1,.49,1.55c.5-.54,1-.84,1.43-.76s.82.48,1.15,1.13c.19-.7.48-1.18.92-1.34a1,1,0,1,0,1.73-1.13,1.79,1.79,0,0,1,1.6-.31c-.48-.56-.72-1.07-.59-1.51s.58-.77,1.27-1c-.68-.27-1.12-.62-1.22-1.06a1.81,1.81,0,0,1,.65-1.49,1.37,1.37,0,0,1-1.69-2,1.74,1.74,0,0,1-1.56.4C438.74,217.68,438.47,217.19,438.32,216.48Zm2.41,1c2.56-1.67,6.62-8,11-15.12C446.23,208.69,441.52,214.51,440.73,217.46Zm11-15.12c.37-.44.76-.88,1.14-1.32l-.24-.18Zm-9.27,17.11c3-.3,9.56-4,16.73-8.3C451.36,214.24,444.49,217.21,442.42,219.45Zm16.73-8.3,1.5-.58-.12-.25ZM443,222c2.83,1.14,10.31.92,18.68.42C453.32,221.54,445.87,221,443,222Zm18.68.42,1.44.16c0-.08,0-.16,0-.25Zm-19.36,2.09c2,2.34,8.7,5.62,16.33,9.05C451.67,228.91,445.33,224.94,442.3,224.51Zm16.33,9.05,1.06.71.11-.18Zm-18.11-7.14c.67,3,5.1,9,10.26,15.62C446.77,234.67,443,228.21,440.52,226.42ZM450.78,242l.53,1,.16-.1Zm-12.71-14.74c-.8,3,.32,10.34,1.82,18.59C439.76,237.5,439.43,230,438.07,227.29Zm1.82,18.59c0,.33,0,.67,0,1l.18,0C440,246.54,440,246.21,439.89,245.88Zm-4.4-19c-2.08,2.24-4.53,9.3-7,17.3C432.25,236.74,435.43,230,435.49,226.92Zm-7,17.3c-.15.29-.29.59-.44.89l.15.06C428.27,244.86,428.37,244.53,428.46,244.22Zm4.92-18.83c-2.89,1-8.33,6.14-14.27,12.06C425.94,232.59,431.9,228.06,433.38,225.39Zm-14.27,12.06-.87.62.13.13Zm13.11-14.4c-3-.44-10.23,1.56-18.23,4C422.3,226,429.67,224.73,432.22,223.05Zm-18.23,4-1.2.17a1.8,1.8,0,0,0,0,.19Zm18.29-6.66c-2.47-1.79-9.79-3.36-18-4.88C422.13,218.41,429.24,220.74,432.28,220.44Zm-18-4.88-1.29-.47a2,2,0,0,0-.07.23Zm19.29,2.6c-1.35-2.73-7.09-7.51-13.68-12.69C425.51,211.65,430.71,217,433.54,218.16Zm-13.68-12.68-1.07-1.18-.18.2Zm15.86,11.25c.07-3-2.79-10-6.22-17.6C431.63,207.23,433.74,214.4,435.72,216.73Zm-6.22-17.6c-.15-.55-.29-1.1-.43-1.65a2.15,2.15,0,0,0-.27.1Z" transform="translate(12.37 117.59)"/><path id="SvgjsPath3649" class="cls-22" d="M447.63,221.41a10,10,0,1,1-10-10A10,10,0,0,1,447.63,221.41Z" transform="translate(12.37 117.59)"/><path id="SvgjsPath3650" class="cls-25" d="M447.63,221.41a10,10,0,1,1-10-10A10,10,0,0,1,447.63,221.41Z" transform="translate(12.37 117.59)"/><path id="SvgjsPath3651" class="cls-35" d="M423.68,233.09a4.17,4.17,0,1,1-1.14,5.79,4.18,4.18,0,0,1,1.14-5.79Z" transform="translate(12.37 117.59)"/><path id="SvgjsPath3655" class="cls-36" d="M445.54,220c-1.07,1.59-4.12,1.41-6.83-.41s-4-4.57-3-6.16h0c1.06-1.59,4.12-1.41,6.82.41s4,4.57,3,6.16Z" transform="translate(12.37 117.59)"/><path id="SvgjsPath3659" class="cls-37" d="M457.68,215.78c-2.42,3.71-8.66,3.93-13.93.49s-7.58-9.22-5.16-12.93,8.65-3.93,13.92-.5,7.58,9.23,5.17,12.94Z" transform="translate(12.37 117.59)"/></g></g></g><g id="svga-group-eyesfront-right"><path id="SvgjsPath3362" class="cls-3" d="M440.63,146.41c-30.65,0-55.5,33.58-55.5,75s24.85,75,55.5,75,55.5-33.57,55.5-75S471.28,146.41,440.63,146.41Zm6.62,94.77c-14.56,1.61-28.22-2.11-42.46-4.87-4-2.38-7.08-5.4-6.2-9,0-.09.06-.19.08-.28s0,0,.06,0c9-15.53,19.31-25.14,33.13-27,10.44-1.4,24.58.71,30.9,2.47,5.39,1.5,11.81,4.76,17.34,4.66a58.54,58.54,0,0,1-1.19,11.65C477.38,222.75,476.41,238,447.25,241.18Z" transform="translate(12.37 117.59)"/><path id="SvgjsPath3363" class="cls-38" d="M482.14,208.74c-3.3-24.62-28.59-41.44-56.49-37.59s-47.82,26.92-44.52,51.54,28.59,41.42,56.49,37.58S485.44,233.34,482.14,208.74Zm-3.23,10.07c-1.53,3.94-2.5,19.15-31.66,22.37-14.56,1.61-28.22-2.1-42.46-4.87-4-2.37-7.07-5.4-6.2-9,0-.09.06-.18.08-.28l.06,0c9-15.54,19.31-25.15,33.13-27,10.44-1.41,24.58.7,30.9,2.46,5.39,1.5,11.81,4.76,17.34,4.67A58.52,58.52,0,0,1,478.91,218.81Z" transform="translate(12.37 117.59)"/><path id="SvgjsPath3368" class="cls-39" d="M478.91,218.81a58.54,58.54,0,0,0,1.19-11.65c-5.53.1-12-3.17-17.34-4.66-6.32-1.76-20.46-3.87-30.9-2.47-13.83,1.85-24.15,11.47-33.14,27,0,0,0,0-.05,0s-.07.19-.09.28c-.87,3.56,2.26,6.59,6.21,9,14.24,2.77,27.9,6.49,42.46,4.88C476.41,238,477.38,222.75,478.91,218.81Z" transform="translate(12.37 117.59)"/><path id="SvgjsPath3372" class="cls-31" d="M433.35,185.27c-9.94,1.51-19.72,6.52-28.84,12.89A78.27,78.27,0,0,1,396.8,203a25,25,0,0,0,7-3.32,52.76,52.76,0,0,0-6.19,8.08c7.89-11,22.46-18.85,34.72-21.24,11.78-2.3,33,.42,48.51,9.31C466.71,185.59,445.68,183.39,433.35,185.27Z" transform="translate(12.37 117.59)"/><path id="SvgjsPath3373" d="M398,227a.37.37,0,0,1-.27-.16.36.36,0,0,1,0-.32c11.48-31.2,35.77-39.78,65.58-29.85,5,1.66,14.69-.2,15.1-.56a36.87,36.87,0,0,1-5.67,4.19c2.78.7,11.4-.62,13.63-1.88a38.14,38.14,0,0,1-6.47,4c2.74.65,11.91.1,15.29-2.43-3.16,3-9.14,7.19-14.4,7.54-5.67.37-12.39-3-18-4.56-6.32-1.71-20.46-3.76-30.9-2.4-13.82,1.81-24.15,11.18-33.13,26.31a.29.29,0,0,1-.26.13Zm49.27,13.7c-14.58,1.57-28.27-2.06-42.54-4.76-3.38-.64,23.87,8.9,43.7,7.57,27.93-1.87,33.14-18.06,31.2-25.51C477.13,218.49,480.32,237.09,447.25,240.65Z" transform="translate(12.37 117.59)"/></g></g><g id="svga-group-facehighlight-single"><path id="SvgjsPath2753" class="cls-40" d="M483.24,296.43A121,121,0,1,1,362.05,175.62,121,121,0,0,1,483.24,296.43Z" transform="translate(12.37 117.59)"/><path id="SvgjsPath2757" class="cls-41" d="M467.63,125.41a105,105,0,1,1-105-105A105,105,0,0,1,467.63,125.41Z" transform="translate(12.37 117.59)"/></g><g id="svga-group-eyebrows-left"><path id="SvgjsPath3400" class="cls-2" d="M231,169.63c96.53-28.22,118.44,29.51,98.41,11.55C308.56,162.52,260.5,164.17,231,169.63Z" transform="translate(12.37 117.59)"/></g><g id="svga-group-eyebrows-right"><path id="SvgjsPath3401" class="cls-2" d="M494.3,169.61c-27.91-5.11-68.32-7.14-92.84,7.59-3,1.81-15,12.12-11.85,4.87C395.42,168.87,433.86,152.06,494.3,169.61Z" transform="translate(12.37 117.59)"/></g><g id="svga-group-nose-single"><path id="SvgjsPath2890" class="cls-5" d="M339.47,306.12c-2.23,6.19,15.09,12.87,21.66,13.28,7.12.44,27.07-8.7,23.69-15-3.56-6.59-16.89-.85-22.65-.85S342.46,297.85,339.47,306.12Z" transform="translate(12.37 117.59)"/><path id="SvgjsPath2891" class="cls-31" d="M369.25,309.08c-.73-1.57,3.58-4,5.25-4.48,2.33-.68,7.51.71,7.31,2.49-.18,1.56-4.81-.51-6.32-.07S369.94,310.55,369.25,309.08Zm-21-1.44c2.12,0,5.26,1.37,5.84.17.68-1.44-4.68-3.19-6.26-3-1.3.16-6,2.87-5.33,4S345.48,307.64,348.27,307.64Z" transform="translate(12.37 117.59)"/><path id="SvgjsPath2892" class="cls-42" d="M362.2,297.85a6.61,6.61,0,0,0,5.94-5.7c2.26-16.72-1.57-60.74-5.94-60.74-4.09,0-7.52,45.07-6.46,60.74.26,3.84,4.19,5.7,6.46,5.7" transform="translate(12.37 117.59)"/></g><g id="svga-group-hair-front"><path id="SvgjsPath3732" class="cls-2" d="M469,367.16c12.22-28.29,21.79-65.91,28.43-111.83.2-1.36.35-2.43.47-3.19,3-19.46,0-47.58-13.47-63.31l-.63-.73,3.19-.87q-2.43.56-5,1.1A160.92,160.92,0,0,1,449.34,192c-26.39,0-46.85-8.49-60.79-25.23-8.65-10.39-14-34.1-19.74-59.2-7.63-33.58-15.53-68.31-32-78.16a24.94,24.94,0,0,0-12.31-3.58,14.42,14.42,0,0,0-8.88,2.74c-10.52,7.88-9.16,30.84-7,42.55-20-12.58-33.73-10.94-42.39-5.42-16.29,10.38-24.51,35.53-27.08,64.66-1.94,22-4.14,47-12.7,70.58-10.86,29.83,2.29,5.51,2.29,5.51l.34,1.72c6.74,34.69,9.6,62.3,7.62,86.66-2.16,26.58-3,47.59,8.73,66.28l.72,1.13L244.9,362c-23.67-3.94-74.19-27.58-79.25-75.53L165.5,285l1.09.94c.94.81,7.19,5.2,12.23,8.71-24.75-24-38.92-47.82-38.92-90.72l1.09-.28a82.25,82.25,0,0,0,5.25,8.94c-10.76-24.31-11.42-56.51-7.43-70.87l.37-1.34.67,1.2c2.87,5.08,6.59,11.66,11.18,16.94-21-35.69-13.49-71.81,3-91l.9-1L155,68c.42,5.37.95,12.15,3.16,17.8-4.72-18.5-2.24-61.35,36.2-90l1.49-1.11-.62,1.8a50.31,50.31,0,0,0-2.86,11.87C203-16,221-27,244.6-35L246-35.5l-.67,1.31c-1.63,3.19-6,11.63-4.5,16.71a11.48,11.48,0,0,1,.48-3c3.4-12.23,24.76-34.69,49.45-34.69h1l-.56.92a25.25,25.25,0,0,0-1.81,3.6c7-10.33,20.59-17.44,34.26-17.44a32.22,32.22,0,0,1,20.2,6.59l.68.54-.73.45a123.84,123.84,0,0,0-12.59,9.16C348.92-62.92,362.13-70.29,380-70.29c10.38,0,22,2.47,36.53,7.77C459.79-46.76,490.1-38.84,501,.27c-1.67-5.34-3-5.63-6.81-13.16l-.64-1.28,1.32.43c48.63,15.66,49.56,40.61,50.24,63.2,0,1.69.1,3.34.17,4.95.16-2.23.36-4.44.56-6.63.37-4.18.76-8.51.87-12.76l0-1.06.85.57c7.11,4.72,30.94,37.84,37.2,75,4.22,25,.57,38.89-2.94,52.33-.73,2.81-1.48,5.68-2.16,8.65.84-2.84,1.72-5.61,2.64-8.33l.44-1.32.61,1.25c26.3,53.78,4.91,77.22-12.27,96.05-1.78,1.95-3.51,3.85-5.14,5.72,4-3.94,8-7.63,11.6-10.9l.92-.84,0,1.28c.67,23.73-15,35.76-28.87,46.38-6.23,4.78-12.19,9.35-16,14.56a116.43,116.43,0,0,1,17-12.15l1.21-.73-.36,1.4c-5.57,21.92-29.69,35.58-69.65,58.22l-13.53,7.69Z" transform="translate(12.37 117.59)"/><path id="SvgjsPath3733" class="cls-43" d="M484.42,188.83c-54.58,11-89.1,4.62-109.43-39.58C363.66,59.06,350.33,31.12,324.5,25.83,402.19,34.14,345.13,197.08,484.42,188.83Zm0,0c27.93,42.58-2.78,149-16.13,180C510.28,290.12,541.44,201.57,484.42,188.83ZM290.63,59.41c-33-12-51,18-57,45-6.54,39.23-1.14,93.21-51,156C219.22,228.93,233,217.56,242.9,129.9c3.29-29.06,7.08-53.82,23.37-64.2,7.54-4.8,18.94-6.66,35,1.24C298.25,61.93,292.57,59.41,290.63,59.41Zm-52.48,233.2c1.83-22.65,0-50.84-9.59-84.31-2.35,56.33-25.59,92.95,13.95,149.94l1.69.66C234,340.76,236.07,318.16,238.15,292.61Z" transform="translate(12.37 117.59)"/><path id="SvgjsPath3734" class="cls-44" d="M498.6,132.29l.39,0c-68.62-.7-92.09-29.47-104.35-68.14C371.73-8.19,305.56-8.45,295.21,38.29c9.13-54.82,86.71-44.2,107,23.63C416.8,110.87,453.19,130.22,498.6,132.29ZM492,7C443.37-67.9,289.23-32,283.89,29.39,285.63-38.25,441.33-76.35,492,7ZM293.37,53.24c-3.17-5.68-13.76-19.69-34.94-13.3-90,27.21-52.64,153.24-99.86,205.36,34.43-44.08,1-178,97.59-207.16C270.81,33.72,287.12,39,293.37,53.24Zm0-29c7.62-32.74,48.87-48.35,80-44.93,37.67,4.13,48,43.86,63.6,62.75C461.17,71.35,489.32,73.6,519.89,69c-5.59.84-44.67,15.68-81.91-17.84-27.42-24.69-26.56-55.56-63.46-66.11C354.32-20.7,304.31-11.76,293.38,24.27ZM528.22,230a35,35,0,0,1,3.45-3c36.68-33.4,26.65-97.17,5.38-112.68C555.43,132.66,560.74,191.28,528.22,230Zm17.7,29.25c-11.83,13.5-29.79,38.62-29.06,41.62-.88-3.65,28-31.4,30.67-34.88,14.35-19,21-37.31,15-55.32C565.25,228.05,563.91,238.77,545.92,259.29ZM228.76,6.09c-44,9.91-36.32,69.57-37,72.57.71-3,1-61.89,45.89-68.4h-.19c15.15-.65,33,.33,44.73,11.12C269.89,6.94,240.65,3.42,228.76,6.09ZM287.5-35.63c4.1-5.39,12-13.37,22.67-13.3-9.09,0-18.91-.15-27.78,11.18C277.13-31,271-13.51,275-4.8,273.8-15.36,282.77-29.4,287.5-35.63Zm-33.26,130c7.58-37.76,29.88-36.13,51.61-24.31C282,69.4,261.51,81.85,254.24,94.35Zm54.49-24.52c-5.5-49.28,25.3-62.07,43.06-10.12C338.05,57.24,318.74,59.6,308.73,69.83Z" transform="translate(12.37 117.59)"/><path id="SvgjsPath3735" class="cls-45" d="M192.37,222.59c18.63-35.59,10.82-97,29.24-125.21C206.32,137.77,211.3,181.56,192.37,222.59Zm32.95,122.2C203.8,323.1,194,296,196.69,265.51,185.8,299.06,200.28,323,225.32,344.79ZM159.25,99.4c-13.54,23.57-4.94,37.95,8.32,60.31C157.29,145.35,147,115.83,159.25,99.4Zm4.1,113.9c-8.21-11.55-15.92-25.73-15.83-40.69C152.34,187.05,148.93,202.79,163.35,213.3Zm21.38-113.18c-10.18-26.41-4.52-58.59,6.78-83.77C173.41,42.26,170,72.4,184.73,100.12ZM415.31-57.1c-53.16-6.2-102,2.46-132.12,53.77C312.46-44.46,366.32-63.12,415.31-57.1ZM515.39,43.49C456.22,41.9,445-27.35,387.72-25.6,444.8-24.17,450.75,45.49,515.39,43.49Zm35.92,179.25c16.8-48,31.45-90.39,1.25-138.53C577.83,134.22,567.13,173.38,551.31,222.74Zm-25.16,81.31c-10.29,22.16-24.94,29.66-41.34,46.62C505.42,342,520.93,326.13,526.15,304.05Zm1.82-206c-43,1.67-81.29-10.26-105.35-46.72C443.38,94.27,484,102.54,528,98.05Z" transform="translate(12.37 117.59)"/><path id="SvgjsPath3736" d="M601.06,205.83s0,0,0-.43c0-.2,0-.32-.06-.38-2-13.75-5.33-24.4-14.36-40.17-.9-1.57-3.21-4.11-2.64-5.85,2.46-7.46,13.3-35.2,2.27-69.34C581.32,74.43,561,41.23,548,32.93,544-2.71,529-8.48,493.65-15.75c.51.88,1,1.79,1.47,2.71,58.61,19.11,46.73,54.31,50.36,76.49-.08-9.48,1.54-18.93,1.79-28.4C554,39.52,577.84,72,584.2,109.65c6.18,36.62-4.48,48.78-7.18,72.62,1.7-6.74,3.6-13.3,5.83-19.88,32.62,66.73-8.91,86.67-23.19,108.69,5.85-6.15,12-11.91,18.26-17.63,1.05,36.62-37.58,45.12-47,64.25a105.55,105.55,0,0,1,20-15c-6,23.78-34.3,37.81-81.41,64.68,20-46.36,27.46-105.59,28.94-115.17,2.68-17.57.91-46.88-13.6-63.82,8.81-2.39,17.78-4.73,26.3-8-7.15,0-83.48,32.35-122.16-14.06-20.49-24.6-22.62-120-51.87-137.47-6.33-3.79-15.51-5.53-21.84-.81-9.47,7.08-10,25.4-8.08,38.18,0,1.82.19,3.6.19,3.6s-3-2-4.14-2.62c-11.47-6.11-25.67-9.48-37.28-2.07-28.81,18.4-20,80.53-40,135.54-18.27,50.26-37.14,43.19-51.85,71.73,18-27.88,33.81-20.49,54.47-64.15,14.25,73.32-5.94,117.42,16.43,153.14-20.4-3.38-73.5-25.16-78.76-75,1.62,1.38,18.45,13.06,18.85,13.31C155.84,273,140.49,249.29,140.49,204a98.39,98.39,0,0,0,9.65,15.09c.05-.26-.79-1.38-.91-1.61-12.78-24.05-14.25-59.77-9.87-75.53,4,7.12,8.73,15.29,14.95,20.8-24.6-37.48-16.16-75.78.14-94.71.62,7.77,1.43,18,6.87,24.24C155,82.39,149.38,30,194.71-3.73c-1.51,4.42-3.28,10.21-2.88,15,11-27.32,30.49-38.06,53-45.71-2.46,4.79-8.93,17.6-1.23,21-10.08-4.43,15.95-41.07,47.16-41.07a27.06,27.06,0,0,0-3.37,8.71C296.13-65.3,326.15-74.69,343.51-61a149.66,149.66,0,0,0-19.83,15.34c38.56-24.7,65.93-24.62,103.87-11.67C450.36-49.56,478.88-40.9,501.74,2c-6.54-32.76-48.61-57.85-71-65.4-60.84-20.54-85.53.24-85.53.24-18.63-21-43.26-7.61-53.1,6.47-45.16-1.08-41.68,18.85-46.59,19.77-43.77,8.17-44,25.15-51.06,29-32.89,18-41.21,41-40.21,72.58-37.31,37.05-16.18,69.33-17.66,72.69-15.21,34.3,1.39,56.53.71,61.14-9.24,62.71,26.3,81.19,26.31,86.59.13,67.78,71.64,80.14,86.51,78.92-21.77-43.14,3.27-71.32-20.19-158.64,12.45-28.19,19.17-63.86,21.94-92.59,3.09-31.91,43.77-42.62,56.82-41.66,13.17-9.76,26.88-9.53,44.34-7.73,9.82,30.8,14.53,71.05,16.68,79.52,12.56,49.38,62,59.3,112.28,46.27,3.13-.81,15.6,19.76,12.18,52.8-.44,4.23-16.74,97.72-28.83,130.93,28.08-13.38,78.86-29.9,89-72.33,21-14.36,30.77-22.38,26.57-48.66C580.88,251.92,602.35,233.73,601.06,205.83Z" transform="translate(12.37 117.59)"/></g><g id="svga-group-glasses-single"><path id="SvgjsPath3428" class="cls-46" d="M337.7,225.1c-11.13,22.38-42.36,24.45-53.34,24.45H248c-17.25,0-32.58-24-32.58-42.87V188.2a3.6,3.6,0,0,1,.87-2.1Zm56-37.74c-6.21,4.29-10.17,10-10.17,17.76v1.5a40.7,40.7,0,0,0,4,18.45c11.13,22.38,42.36,24.45,53.34,24.45h36.36c12.27,0,23.55-12.15,29-26Z" transform="translate(12.37 117.59)"/><path id="SvgjsPath3429" class="cls-47" d="M337.7,225.1l-121.44-39c3-4,13.2-8.1,18.45-8.73a312.89,312.89,0,0,1,35.82-2.07c26.58,0,71.16,3.87,71.16,29.88v1.5A41.1,41.1,0,0,1,337.7,225.1Zm172.14-18.45V188.17a3.6,3.6,0,0,0-.87-2.1c-3-4-13.2-8.1-18.45-8.73a312.89,312.89,0,0,0-35.82-2.07c-18.69,0-46.23,1.92-61,12.09L506.3,223.54A46,46,0,0,0,509.84,206.65Z" transform="translate(12.37 117.59)"/><path id="SvgjsPath3430" class="cls-48" d="M511.82,193.45v-5.28c0-6.3-14.7-12-21-12.75-28.26-3.36-94.56-6.06-107.1,20.28a82.5,82.5,0,0,0-21.06-3.87,82.5,82.5,0,0,0-21.06,3.87c-12.51-26.31-78.81-23.64-107.1-20.28-6.33.75-21,6.42-21,12.75v5.28H199.13v7.08h14.31v6.12c0,18.9,15.45,44.82,34.53,44.82h36.36c25,0,59.28-9.39,59.28-44.82v-1.5a22.79,22.79,0,0,0-.87-6.36c10.38-3.21,16.65-3.87,19.86-3.93s9.48.72,19.86,3.93a22.79,22.79,0,0,0-.87,6.36v1.5c0,35.43,34.32,44.82,59.28,44.82h36.36c19.08,0,34.53-25.92,34.53-44.82v-6.12h14.31v-7.08Zm-170.61,13.2c0,39.33-43.5,42.39-56.85,42.39H248c-17,0-32.1-23.7-32.1-42.39V188.17c0-3.93,12.27-9.54,18.87-10.32a311.59,311.59,0,0,1,35.76-2.07c26.4,0,70.65,3.81,70.65,29.37v1.5Zm168.15,0c0,18.69-15.12,42.39-32.1,42.39H440.9c-13.35,0-56.85-3.06-56.85-42.39v-1.5c0-25.56,44.28-29.37,70.65-29.37a311.11,311.11,0,0,1,35.76,2.07c6.6.78,18.9,6.39,18.9,10.32Z" transform="translate(12.37 117.59)"/></g></g></g><g id="SvgjsText1034" class="cls-49"><text class="cls-50" transform="translate(210.86 660.48)">Created on <tspan class="cls-51" x="129.56" y="0">A</tspan><tspan class="cls-52" x="145.51" y="0">v</tspan><tspan x="157.63" y="0">atarMake</tspan><tspan class="cls-53" x="264.48" y="0">r</tspan><tspan class="cls-54" x="271.55" y="0">.com</tspan></text></g></g></svg>